<svg width="167" height="21" viewBox="0 0 167 21" fill="none" xmlns="http://www.w3.org/2000/svg">
<path d="M2.75055 20.4915C1.75855 20.4915 1.05212 20.2059 0.631273 19.6347C0.210424 19.0481 0 18.1837 0 17.0413C0 15.8836 0.473455 12.6187 1.42036 7.2467L0.225454 4.76909C1.92388 3.64221 3.472 3.07877 4.86982 3.07877C6.02715 3.07877 6.60582 3.8043 6.60582 5.25535C6.60582 5.68758 6.31273 7.49369 5.72655 10.6737C5.15539 13.8536 4.86982 15.8759 4.86982 16.7403H7.30473C8.44703 16.5705 9.59685 16.2695 10.7542 15.8373C10.8444 16.1151 10.8895 16.4933 10.8895 16.9719C10.8895 17.8826 10.6264 18.6931 10.1004 19.4032C9.58933 20.1132 8.87539 20.4683 7.95855 20.4683C7.3423 20.4683 6.27515 20.2985 4.75709 19.9589C4.12582 20.3139 3.45697 20.4915 2.75055 20.4915Z" fill="#76558F"/>
<path d="M18.4834 20.4683C16.4242 20.4683 14.831 19.9203 13.7038 18.8243C12.5915 17.7283 12.0354 16.2463 12.0354 14.3785C12.0354 11.8932 12.8621 9.87867 14.5154 8.33499C16.1838 6.77588 18.273 5.99632 20.783 5.99632C22.1809 5.99632 23.2405 6.32049 23.9619 6.96883C24.6834 7.60174 25.0441 8.44305 25.0441 9.49275C25.0441 10.9284 24.3602 12.1247 22.9925 13.0818C21.6398 14.0234 19.543 14.502 16.7023 14.5174C16.7474 15.5054 16.9653 16.2849 17.3561 16.8561C17.7469 17.4118 18.2354 17.6897 18.8216 17.6897C19.4078 17.6897 19.9113 17.489 20.3321 17.0876C20.768 16.6863 20.9859 16.0302 20.9859 15.1195C23.1804 15.1195 24.2776 15.652 24.2776 16.7172C24.2776 17.6279 23.7365 18.4847 22.6543 19.2874C21.5721 20.0747 20.1818 20.4683 18.4834 20.4683ZM20.3998 8.70547C19.6332 8.70547 18.9268 9.09911 18.2805 9.88639C17.6492 10.6737 17.1908 11.5999 16.9052 12.665C18.4082 12.5415 19.5355 12.1942 20.287 11.623C21.0536 11.0364 21.4369 10.419 21.4369 9.77061C21.4369 9.46187 21.3392 9.20717 21.1438 9.00649C20.9634 8.80581 20.7154 8.70547 20.3998 8.70547Z" fill="#76558F"/>
<path d="M41.4623 10.1179L41.6878 10.2337C43.296 7.40878 45.265 5.99632 47.5947 5.99632C49.4134 5.99632 50.3227 6.93024 50.3227 8.79809C50.3227 9.60081 50.0972 10.9592 49.6463 12.8734C49.2104 14.7876 48.9925 16.2309 48.9925 17.2034C48.9925 18.1759 49.1503 18.886 49.466 19.3337C48.6694 20.0901 47.8277 20.4683 46.9409 20.4683C45.2124 20.4683 44.3481 19.5112 44.3481 17.5971C44.3481 16.887 44.5736 15.6829 45.0245 13.9848C45.4754 12.2868 45.7009 11.1831 45.7009 10.6737C45.7009 9.97901 45.4454 9.63168 44.9343 9.63168C44.5135 9.63168 44.04 9.82464 43.514 10.2106C43.0029 10.581 42.5069 11.0905 42.026 11.7388C41.56 12.3717 41.1617 13.1821 40.8311 14.1701C40.5154 15.1426 40.3576 16.1383 40.3576 17.1571C40.3576 18.1605 40.5154 18.886 40.8311 19.3337C40.0344 20.0901 39.1927 20.4683 38.306 20.4683C36.5775 20.4683 35.7132 19.5112 35.7132 17.5971C35.7132 16.887 35.9387 15.6829 36.3896 13.9848C36.8405 12.2868 37.066 11.1831 37.066 10.6737C37.066 9.97901 36.8104 9.63168 36.2994 9.63168C35.8786 9.63168 35.4051 9.82464 34.8791 10.2106C34.368 10.581 33.872 11.0905 33.391 11.7388C32.9251 12.3717 32.5268 13.1821 32.1961 14.1701C31.8805 15.1426 31.7227 16.1383 31.7227 17.1571C31.7227 18.1605 31.8805 18.886 32.1961 19.3337C31.3995 20.0901 30.5578 20.4683 29.6711 20.4683C27.9426 20.4683 27.0783 19.5112 27.0783 17.5971C27.0783 16.9796 27.2286 15.7832 27.5292 14.008C27.8449 12.2328 28.168 10.6119 28.4987 9.14542L27.3263 7.29301C28.8143 6.42855 30.1896 5.99632 31.4521 5.99632C32.7147 5.99632 33.346 6.58292 33.346 7.75611C33.346 8.52795 33.1731 9.31522 32.8274 10.1179L33.0529 10.2337C34.6611 7.40878 36.6301 5.99632 38.9598 5.99632C39.8015 5.99632 40.4628 6.21243 40.9438 6.64466C41.4398 7.07689 41.6878 7.72524 41.6878 8.5897C41.6878 9.0528 41.6126 9.56221 41.4623 10.1179Z" fill="#76558F"/>
<path d="M63.4635 7.75611C64.3052 7.75611 65.0267 8.10344 65.6279 8.79809C66.2441 9.49275 66.5522 10.5039 66.5522 11.8314C66.5522 13.1435 66.3268 14.3631 65.8759 15.4899C65.425 16.6014 64.8313 17.5122 64.0948 18.2222C63.3583 18.9323 62.5241 19.4881 61.5922 19.8894C60.6604 20.2753 59.7059 20.4683 58.729 20.4683C56.76 20.4683 55.2044 19.9126 54.0621 18.8011C52.9198 17.6897 52.3486 16.2155 52.3486 14.3785C52.3486 11.8932 53.1227 9.87867 54.6708 8.33499C56.2339 6.77588 58.2179 5.99632 60.6228 5.99632C61.1639 5.99632 61.705 6.05807 62.2461 6.18156C62.4114 6.69097 62.5016 7.26985 62.5166 7.9182C62.8322 7.81014 63.1479 7.75611 63.4635 7.75611ZM60.6904 10.9747C60.6904 10.5424 60.7881 10.0562 60.9835 9.5159C61.1939 8.97562 61.5246 8.54339 61.9755 8.21921C59.9915 8.65144 58.6238 9.47731 57.8722 10.6968C57.2259 11.7465 56.9028 12.8271 56.9028 13.9385C56.9028 15.05 57.1207 15.9453 57.5566 16.6245C58.0075 17.2883 58.5787 17.6202 59.2701 17.6202C60.8032 17.6202 61.8853 16.5937 62.5166 14.5406C61.2992 13.7687 60.6904 12.5801 60.6904 10.9747Z" fill="#76558F"/>
<path d="M71.2833 20.4683C70.3965 20.4683 69.7427 20.229 69.3218 19.7505C68.901 19.2719 68.6905 18.639 68.6905 17.8518C68.6905 17.0645 68.8408 15.7832 69.1414 14.008C69.4571 12.2328 69.7802 10.6119 70.1109 9.14542L68.9385 7.29301C70.4265 6.42855 71.8018 5.99632 73.0644 5.99632C74.3269 5.99632 74.9582 6.58292 74.9582 7.75611C74.9582 8.52795 74.7853 9.31522 74.4396 10.1179L74.6651 10.2337C76.2733 7.40878 78.3175 5.99632 80.7974 5.99632C82.6161 5.99632 83.5255 6.93024 83.5255 8.79809C83.5255 9.60081 83.3 10.9592 82.8491 12.8734C82.4132 14.7876 82.1953 16.2309 82.1953 17.2034C82.1953 18.1759 82.3531 18.886 82.6687 19.3337C81.8721 20.0901 81.0304 20.4683 80.1436 20.4683C78.4151 20.4683 77.5509 19.5112 77.5509 17.5971C77.5509 16.887 77.7764 15.6829 78.2273 13.9848C78.6782 12.2868 78.9036 11.1831 78.9036 10.6737C78.9036 9.97901 78.6481 9.63168 78.1371 9.63168C77.7162 9.63168 77.2353 9.82464 76.6942 10.2106C76.1531 10.581 75.627 11.0905 75.116 11.7388C74.62 12.3717 74.1991 13.1821 73.8534 14.1701C73.5078 15.1426 73.3349 16.1383 73.3349 17.1571C73.3349 18.1605 73.4927 18.886 73.8084 19.3337C73.0118 20.0901 72.1701 20.4683 71.2833 20.4683Z" fill="#76558F"/>
<path d="M115.653 20.4915C114.676 20.4915 113.978 20.2059 113.557 19.6347C113.136 19.0481 112.925 18.1837 112.925 17.0413C112.925 15.8836 113.399 12.6187 114.346 7.2467L113.151 4.76909C114.849 3.64221 116.397 3.07877 117.795 3.07877C118.953 3.07877 119.531 3.8043 119.531 5.25535C119.531 5.68758 119.216 7.58631 118.584 10.9515L119.644 10.0485C121.838 8.16518 122.936 6.55976 122.936 5.2322C122.936 4.83084 122.875 4.46808 122.755 4.14391C123.867 3.44925 124.92 3.10192 125.912 3.10192C127.385 3.10192 128.121 3.87376 128.121 5.41744C128.121 7.14636 126.626 8.89843 123.635 10.6737C125.032 15.2738 126.543 18.1142 128.166 19.1948C127.835 19.5344 127.339 19.8277 126.678 20.0747C126.032 20.3371 125.453 20.4683 124.942 20.4683C123.92 20.4683 123.101 20.1982 122.485 19.6579C121.868 19.1176 121.312 18.1219 120.816 16.6708L119.509 12.8966L118.111 13.6607C117.9 14.9265 117.795 15.7369 117.795 16.092C117.795 17.5893 118.021 18.7085 118.472 19.4495C117.57 20.1441 116.63 20.4915 115.653 20.4915Z" fill="#76558F"/>
<path d="M136.321 2.3378C136.321 2.9244 136.021 3.43381 135.42 3.86604C134.818 4.28284 134.135 4.49123 133.368 4.49123C132.601 4.49123 131.993 4.33686 131.542 4.02813C131.106 3.71939 130.888 3.3026 130.888 2.77775C130.888 2.06766 131.211 1.51193 131.857 1.11058C132.504 0.709223 133.188 0.508545 133.909 0.508545C134.631 0.508545 135.209 0.662913 135.645 0.971648C136.096 1.28038 136.321 1.73577 136.321 2.3378ZM131.925 20.4683C130.993 20.4683 130.317 20.229 129.896 19.7505C129.475 19.2719 129.265 18.5464 129.265 17.5739C129.265 16.5859 129.746 13.954 130.708 9.67799L129.445 7.73295C131.324 6.5752 132.804 5.99632 133.887 5.99632C134.503 5.99632 134.939 6.13525 135.194 6.41311C135.45 6.67554 135.577 7.10777 135.577 7.7098C135.577 7.94135 135.299 9.29979 134.743 11.7851C134.187 14.2704 133.909 16.0457 133.909 17.1108C133.909 18.1759 134.142 18.9169 134.608 19.3337C133.766 20.0901 132.872 20.4683 131.925 20.4683Z" fill="#76558F"/>
<path d="M146.28 18.1991L146.054 18.0833C144.882 19.6733 143.484 20.4683 141.861 20.4683C140.658 20.4683 139.636 19.982 138.795 19.0095C137.968 18.0216 137.555 16.694 137.555 15.0268C137.555 12.9583 138.261 11.075 139.674 9.37697C140.365 8.54339 141.29 7.87189 142.447 7.36247C143.604 6.83762 144.897 6.5752 146.325 6.5752C146.595 6.5752 147.076 6.60607 147.768 6.66782C147.798 6.34365 147.865 5.95001 147.971 5.4869L146.708 3.63449C148.587 2.50761 150.067 1.94416 151.149 1.94416C151.766 1.94416 152.202 2.07538 152.457 2.3378C152.713 2.58479 152.84 3.06333 152.84 3.77342C152.84 4.46808 152.502 6.44398 151.826 9.70114C151.165 12.9583 150.834 15.2738 150.834 16.6477C150.834 18.0061 151.067 18.9015 151.533 19.3337C150.691 20.0901 149.812 20.4683 148.895 20.4683C147.993 20.4683 147.332 20.2367 146.911 19.7736C146.49 19.2951 146.28 18.7703 146.28 18.1991ZM141.793 14.1469C141.793 15.0268 142.011 15.7215 142.447 16.2309C142.898 16.7403 143.454 16.995 144.115 16.995C144.972 16.995 145.754 16.5782 146.46 15.7446C146.701 12.9969 147.039 10.6196 147.475 8.61285C145.746 8.61285 144.363 9.18401 143.326 10.3263C142.304 11.4687 141.793 12.7422 141.793 14.1469Z" fill="#76558F"/>
<path d="M161.837 9.07596C161.281 9.24576 160.838 9.49275 160.507 9.81692C160.176 10.1257 159.883 10.5733 159.628 11.1599C162.168 11.5458 163.956 12.1016 164.993 12.8271C166.031 13.5526 166.549 14.5869 166.549 15.9299C166.549 16.7789 166.316 17.5199 165.85 18.1528C165.384 18.7703 164.798 19.2411 164.092 19.5652C162.709 20.1673 161.349 20.4683 160.011 20.4683C156.208 20.4683 154.307 19.627 154.307 17.9444C154.307 17.0954 154.675 16.2463 155.412 15.3973C155.787 15.9376 156.351 16.4007 157.103 16.7866C157.869 17.1725 158.613 17.3655 159.335 17.3655C160.582 17.3655 161.334 16.8021 161.589 15.6752C159.304 15.3973 157.651 14.8725 156.629 14.1006C155.607 13.3288 155.096 12.2405 155.096 10.8357C155.096 9.7243 155.449 8.79037 156.156 8.03397C156.877 7.27757 157.764 6.75272 158.816 6.45942C159.883 6.15069 161.078 5.99632 162.401 5.99632C163.738 5.99632 164.836 6.25874 165.692 6.78359C166.564 7.29301 167 7.9182 167 8.65916C167 9.40013 166.744 9.97129 166.233 10.3726C165.737 10.774 165.189 10.9747 164.588 10.9747C164.001 10.9747 163.46 10.8126 162.964 10.4884C162.483 10.1642 162.108 9.69343 161.837 9.07596Z" fill="#76558F"/>
<path fill-rule="evenodd" clip-rule="evenodd" d="M106.139 15.7833C107.028 13.1849 106.097 9.87389 103.781 7.47993C102.535 6.19148 101.029 5.30516 99.4844 4.91665C100.235 4.14138 100.689 3.44642 100.689 3.44642C100.689 3.44642 98.5288 4.1898 96.5045 3.27884C94.7095 2.47196 93.3959 4.56584 93.0943 5.10337C92.5962 4.69312 91.9137 4.29881 91.0587 4.19502C90.9483 4.18197 90.9158 4.60701 91.0234 4.62991C91.1834 4.66412 91.3318 4.70819 91.4765 4.75603C90.7815 5.1976 88.2333 7.01604 89.3586 9.2862C90.6398 11.8683 89.8158 14.7227 89.8158 14.7227C90.1826 13.9477 90.4881 13.1342 90.6325 12.2852C90.7813 11.4363 90.77 10.5717 90.6949 9.7066C90.6311 8.84376 90.518 7.94788 90.6438 7.04532C90.7056 6.60172 90.8236 6.16778 90.9949 5.75397C91.1732 5.35358 91.3898 4.98073 91.6461 4.65224C91.2272 5.39301 90.9285 6.21641 90.8619 7.07345C90.7926 7.92932 90.9071 8.7881 90.9807 9.66659C91.0515 10.543 91.0558 11.4644 90.8477 12.3395C90.7475 12.7707 90.6091 13.1922 90.4342 13.5989C90.253 13.9941 90.0509 14.3739 89.8158 14.7227C89.8158 14.7227 91.2794 13.6534 92.4881 12.0379C92.849 13.6273 93.6942 15.2188 94.978 16.5449C96.6909 18.3152 98.8921 19.3311 101.017 19.3311C101.722 19.3311 102.393 19.2172 103.013 18.9934C103.26 19.143 103.548 19.2207 103.86 19.2207C104.333 19.2207 104.817 19.0432 105.242 18.7266C105.423 18.7617 105.644 18.7504 105.777 18.6138C105.907 18.477 105.918 18.2479 105.884 18.0598C106.403 17.319 106.51 16.4252 106.139 15.7833ZM103.86 18.5124C103.636 18.5124 103.441 18.4468 103.294 18.3233L103.13 18.1868L102.931 18.2662C102.345 18.5025 101.703 18.6225 101.018 18.6225C99.0837 18.6225 97.0678 17.6864 95.488 16.0529C94.1108 14.629 93.2726 12.8848 93.0503 11.2079C93.8331 9.91709 94.3315 8.38422 93.8925 6.80613C93.949 6.72263 94.0143 6.63478 94.1047 6.54229C94.3694 6.26802 94.6043 6.16654 94.6991 6.15379L94.8661 6.28368L95.0783 6.14596C95.8301 5.65888 96.7503 5.40171 97.7396 5.40171C99.6734 5.40171 101.688 6.33876 103.27 7.97223C105.451 10.2264 106.311 13.3345 105.411 15.7055L105.34 15.8914L105.462 16.0482C105.821 16.5101 105.652 17.3358 105.08 17.9287C104.726 18.294 104.271 18.5124 103.86 18.5124Z" fill="#FF8A00"/>
<path d="M102.628 11.1862C102.993 11.0623 103.168 10.6553 103.014 10.2786C102.86 9.89836 102.436 9.6911 102.071 9.81546C101.705 9.93981 101.53 10.3464 101.684 10.7234C101.838 11.1001 102.262 11.311 102.627 11.1866L102.628 11.1862ZM97.9678 10.2801C98.1213 10.6567 97.9469 11.0637 97.5814 11.188C97.2155 11.3084 96.7916 11.1015 96.6377 10.7245C96.4842 10.3478 96.6586 9.93729 97.0241 9.81654C97.39 9.69218 97.8139 9.89944 97.9678 10.2801Z" fill="#FF8A00"/>
<path d="M104.155 11.0853V10.8633H104.156V10.1409C104.156 10.1261 104.158 10.1193 104.158 10.1175C104.164 10.1067 104.171 10.0965 104.18 10.0872C104.192 10.0728 104.206 10.0584 104.23 10.0346L104.236 10.0274C104.331 9.93187 104.509 9.752 104.512 9.42651V9.41786C104.511 9.22758 104.436 9.04515 104.301 8.91046C104.167 8.77578 103.985 8.69979 103.794 8.69913H100.543C100.504 8.69913 100.465 8.70237 100.427 8.7085C100.095 8.74931 99.7876 8.90367 99.5566 9.14536C99.5249 9.17564 99.4954 9.2052 99.4701 9.23043L99.4687 9.23187C99.3861 9.31405 99.3447 9.35298 99.2982 9.37966C99.2621 9.4002 99.2092 9.42147 99.1061 9.42147C98.9961 9.42147 98.9428 9.39984 98.9089 9.38038C98.8638 9.35515 98.8235 9.3173 98.7391 9.23223L98.7373 9.23043C98.7096 9.20268 98.6771 9.16951 98.6411 9.13563C98.4132 8.90144 98.1127 8.75128 97.7886 8.70958C97.7484 8.70262 97.7076 8.69912 97.6668 8.69913H94.4155C94.0154 8.69913 93.6982 9.02714 93.6982 9.41931V9.42003C93.6982 9.75056 93.8821 9.93331 93.9787 10.0292L93.9859 10.0364C94.0104 10.0605 94.0252 10.0753 94.0378 10.0897C94.0463 10.0994 94.0538 10.1099 94.0601 10.1211C94.0619 10.1285 94.0626 10.1362 94.0623 10.1438V10.1896C94.0608 10.219 94.0601 10.2484 94.0601 10.2779V11.0853C94.0601 12.3173 94.9865 13.3814 96.1987 13.3814H96.9098C98.1462 13.3814 99.105 12.2982 99.105 11.0312C99.105 12.2982 100.062 13.3778 101.299 13.3778H102.011C103.218 13.3778 104.155 12.3242 104.155 11.0853ZM103.431 11.0817C103.431 11.9468 102.806 12.6659 102.008 12.6659H101.295C100.47 12.6659 99.8284 11.9252 99.8284 11.0276V10.2779C99.8313 9.80571 100.154 9.42003 100.59 9.42003H102.666C103.102 9.42003 103.431 9.80571 103.431 10.2779V11.0817ZM96.9098 12.6655H96.2019C95.4043 12.6655 94.7807 11.9504 94.7807 11.0853V10.2779C94.7807 9.80571 95.1087 9.42003 95.5437 9.42003H97.621C98.0564 9.42003 98.3863 9.80571 98.3863 10.2779V11.0312C98.3863 11.9252 97.7374 12.6655 96.9098 12.6655Z" fill="#FF8A00"/>
</svg>
