<svg width="70" height="14" viewBox="0 0 70 14" fill="none" xmlns="http://www.w3.org/2000/svg">
<path d="M6.52447 1.46352C6.67415 1.00287 7.32585 1.00287 7.47553 1.46353L8.45934 4.49139C8.52628 4.6974 8.71826 4.83688 8.93487 4.83688H12.1186C12.6029 4.83688 12.8043 5.45669 12.4124 5.74139L9.83679 7.61271C9.66155 7.74003 9.58822 7.96572 9.65516 8.17173L10.639 11.1996C10.7886 11.6602 10.2614 12.0433 9.86955 11.7586L7.29389 9.88729C7.11865 9.75997 6.88135 9.75997 6.70611 9.88729L4.13045 11.7586C3.73859 12.0433 3.21136 11.6602 3.36103 11.1996L4.34484 8.17173C4.41178 7.96572 4.33845 7.74003 4.16321 7.61271L1.58755 5.74139C1.1957 5.45669 1.39708 4.83688 1.88145 4.83688H5.06513C5.28174 4.83688 5.47372 4.6974 5.54066 4.49139L6.52447 1.46352Z" fill="#FFD500"/>
<path d="M20.5245 1.46352C20.6741 1.00287 21.3259 1.00287 21.4755 1.46353L22.4593 4.49139C22.5263 4.6974 22.7183 4.83688 22.9349 4.83688H26.1186C26.6029 4.83688 26.8043 5.45669 26.4124 5.74139L23.8368 7.61271C23.6615 7.74003 23.5882 7.96572 23.6552 8.17173L24.639 11.1996C24.7886 11.6602 24.2614 12.0433 23.8695 11.7586L21.2939 9.88729C21.1186 9.75997 20.8814 9.75997 20.7061 9.88729L18.1305 11.7586C17.7386 12.0433 17.2114 11.6602 17.361 11.1996L18.3448 8.17173C18.4118 7.96572 18.3385 7.74003 18.1632 7.61271L15.5876 5.74139C15.1957 5.45669 15.3971 4.83688 15.8814 4.83688H19.0651C19.2817 4.83688 19.4737 4.6974 19.5407 4.49139L20.5245 1.46352Z" fill="#FFD500"/>
<path d="M34.5245 1.46352C34.6741 1.00287 35.3259 1.00287 35.4755 1.46353L36.4593 4.49139C36.5263 4.6974 36.7183 4.83688 36.9349 4.83688H40.1186C40.6029 4.83688 40.8043 5.45669 40.4124 5.74139L37.8368 7.61271C37.6615 7.74003 37.5882 7.96572 37.6552 8.17173L38.639 11.1996C38.7886 11.6602 38.2614 12.0433 37.8695 11.7586L35.2939 9.88729C35.1186 9.75997 34.8814 9.75997 34.7061 9.88729L32.1305 11.7586C31.7386 12.0433 31.2114 11.6602 31.361 11.1996L32.3448 8.17173C32.4118 7.96572 32.3385 7.74003 32.1632 7.61271L29.5876 5.74139C29.1957 5.45669 29.3971 4.83688 29.8814 4.83688H33.0651C33.2817 4.83688 33.4737 4.6974 33.5407 4.49139L34.5245 1.46352Z" fill="#FFD500"/>
<path d="M48.5245 1.46352C48.6741 1.00287 49.3259 1.00287 49.4755 1.46353L50.4593 4.49139C50.5263 4.6974 50.7183 4.83688 50.9349 4.83688H54.1186C54.6029 4.83688 54.8043 5.45669 54.4124 5.74139L51.8368 7.61271C51.6615 7.74003 51.5882 7.96572 51.6552 8.17173L52.639 11.1996C52.7886 11.6602 52.2614 12.0433 51.8695 11.7586L49.2939 9.88729C49.1186 9.75997 48.8814 9.75997 48.7061 9.88729L46.1305 11.7586C45.7386 12.0433 45.2114 11.6602 45.361 11.1996L46.3448 8.17173C46.4118 7.96572 46.3385 7.74003 46.1632 7.61271L43.5876 5.74139C43.1957 5.45669 43.3971 4.83688 43.8814 4.83688H47.0651C47.2817 4.83688 47.4737 4.6974 47.5407 4.49139L48.5245 1.46352Z" fill="#FFD500"/>
<path d="M62.5245 1.46352C62.6741 1.00287 63.3259 1.00287 63.4755 1.46353L64.4593 4.49139C64.5263 4.6974 64.7183 4.83688 64.9349 4.83688H68.1186C68.6029 4.83688 68.8043 5.45669 68.4124 5.74139L65.8368 7.61271C65.6615 7.74003 65.5882 7.96572 65.6552 8.17173L66.639 11.1996C66.7886 11.6602 66.2614 12.0433 65.8695 11.7586L63.2939 9.88729C63.1186 9.75997 62.8814 9.75997 62.7061 9.88729L60.1305 11.7586C59.7386 12.0433 59.2114 11.6602 59.361 11.1996L60.3448 8.17173C60.4118 7.96572 60.3385 7.74003 60.1632 7.61271L57.5876 5.74139C57.1957 5.45669 57.3971 4.83688 57.8814 4.83688H61.0651C61.2817 4.83688 61.4737 4.6974 61.5407 4.49139L62.5245 1.46352Z" fill="#FFD500"/>
</svg>
