<svg width="24" height="24" viewBox="0 0 24 24" fill="none" xmlns="http://www.w3.org/2000/svg">
<rect width="24" height="24" fill="#F5F5F5"/>
<g id="Desktop" clip-path="url(#clip0_0_1)">
<rect width="1440" height="4873" transform="translate(-1096 -3016)" fill="white"/>
<g id="Frame 4">
<rect width="1440" height="965" transform="translate(-1096 -345)" fill="white"/>
<g id="&#38; Accordion">
<g id="Surface">
<g id="List">
<g id="_block">
<g id="Surface_2">
<g id="Header">
<g id="xmark">
<g id="I / Gaming / xmark">
<path id="xmark_2" d="M6.16145 16.3306C5.84505 16.647 5.82998 17.212 6.16899 17.5435C6.50046 17.875 7.06547 17.8674 7.38188 17.551L11.9924 12.933L16.6104 17.551C16.9343 17.875 17.4918 17.875 17.8233 17.5435C18.1472 17.2045 18.1548 16.6545 17.8233 16.3306L13.2128 11.7126L17.8233 7.10209C18.1548 6.77815 18.1548 6.22068 17.8233 5.8892C17.4843 5.56526 16.9343 5.55773 16.6104 5.88167L11.9924 10.4997L7.38188 5.88167C7.06547 5.56526 6.49293 5.5502 6.16899 5.8892C5.83752 6.22068 5.84505 6.78569 6.16145 7.10209L10.7795 11.7126L6.16145 16.3306Z" fill="#E9922D"/>
</g>
</g>
</g>
</g>
</g>
</g>
</g>
</g>
</g>
</g>
<defs>
<clipPath id="clip0_0_1">
<rect width="1440" height="4873" fill="white" transform="translate(-1096 -3016)"/>
</clipPath>
</defs>
</svg>
